# xmcd
#
# Track frame offsets:
#	150
#	14272
#	33847
#	46360
#	62392
#	75632
#	92372
#	106370
#	122897
#	139872
#	158277
#	171225
#	188555
#	203915
#	219117
#	234200
#	250172
#	265880
#	286070
#	304750
#
# Disc length: 4311 seconds
#
# Revision: 1
# Processed by: cddbd v1.5.2PL0 Copyright (c) Steve Scherf et al.
# Submitted via: audiograbber 1.83.01
#
DISCID=f710d514
DTITLE=Various Artist - Fazer Musiikki 1897-1997
DYEAR=1997
DGENRE=Oldies
TTITLE0=Rauno Lehtisen Orkesteri - On Hetki
TTITLE1=Leif Wager - Romanssi
TTITLE2=Jaakko Ryhänen - Ystävän Laulu
TTITLE3=Carola - Rakkauden Jälkeen
TTITLE4=Marjatta Leppänen - Sydämesi Tyhjä Huone
TTITLE5=Neumann - Naiselleni
TTITLE6=Arja Koriseva Ja Tapani Kansa - Se On Rakkautta Oikeaa
TTITLE7=Juha Vainio Ja Hyvän Tuulen Laulajat - Albatrossi
TTITLE8=Katri Helena - Katson Autiota Hiekkarantaa
TTITLE9=Paula Koivuniemi - Aikuinen nainen
TTITLE10=Jörgen Petersen - Särkyneiden Toiveiden Katu
TTITLE11=Rami Hammar And The Riders - Syksyn Sävel
TTITLE12=Laila Kinnunen - Toiset Meistä
TTITLE13=Olavi Virta - Hopeinen Kuu
TTITLE14=Tapio Rautavaara - En Päivääkään Vaihtaisi Pois
TTITLE15=Georg Malmstén - Stadin Kundi
TTITLE16=Hector - Lumi Teki Enkelin Eteiseen
TTITLE17=Vesa-Matti Loiri - Lapin Kesä
TTITLE18=Juice Leskinen Slam - Viidestoista Yö
TTITLE19=Ylioppilaskunnan Laulajat - Täällä Pohjantähden Alla
EXTD=TR.
EXTT0=
EXTT1=
EXTT2=
EXTT3=
EXTT4=
EXTT5=
EXTT6=
EXTT7=
EXTT8=
EXTT9=
EXTT10=
EXTT11=
EXTT12=
EXTT13=
EXTT14=
EXTT15=
EXTT16=
EXTT17=
EXTT18=
EXTT19=
PLAYORDER=
